<svg width="256" height="256" viewBox="0 0 256 256" fill="none" xmlns="http://www.w3.org/2000/svg">
<g clip-path="url(#clip0_2_39)">
<path d="M51.2 0H204.8C218.379 0 231.402 5.39427 241.004 14.9961C250.606 24.598 256 37.6209 256 51.2V204.8C256 218.379 250.606 231.402 241.004 241.004C231.402 250.606 218.379 256 204.8 256H51.2C37.6209 256 24.598 250.606 14.9961 241.004C5.39427 231.402 0 218.379 0 204.8L0 51.2C0 37.6209 5.39427 24.598 14.9961 14.9961C24.598 5.39427 37.6209 0 51.2 0V0Z" fill="#000080" fill-opacity="0.2"/>
<g clip-path="url(#clip1_2_39)">
<path d="M176.929 128.013C176.929 101.008 155.006 79.0842 128 79.0842C100.994 79.0842 79.0707 101.008 79.0707 128.013C79.0707 155.019 100.994 176.943 128 176.943C155.006 176.943 176.929 155.019 176.929 128.013Z" fill="#000080"/>
<path d="M162.602 107.739C162.602 99.8319 156.182 93.4116 148.275 93.4116C140.367 93.4116 133.947 99.8319 133.947 107.739C133.947 115.646 140.367 122.066 148.275 122.066C156.182 122.066 162.602 115.646 162.602 107.739Z" fill="white"/>
<path d="M191.257 79.0708C191.257 71.1637 184.836 64.7434 176.929 64.7434C169.022 64.7434 162.602 71.1637 162.602 79.0708C162.602 86.9778 169.022 93.3981 176.929 93.3981C184.836 93.3981 191.257 86.9913 191.257 79.0708Z" fill="#000080"/>
<path d="M98.8857 148.856H114.74V152.465H94.7903V120.363H98.8857V148.856Z" fill="white"/>
<path d="M133.677 152.465V149.248C131.514 152.289 129.365 153.478 125.973 153.478C121.485 153.478 118.62 151.018 118.62 147.18V129.392H122.269V145.733C122.269 148.504 124.121 150.275 127.027 150.275C130.852 150.275 133.325 147.193 133.325 142.476V129.392H136.975V152.465H133.677Z" fill="white"/>
<path d="M163.805 153.086C162.615 153.397 162.048 153.478 161.291 153.478C158.912 153.478 157.763 152.424 157.506 150.086C154.911 152.465 152.573 153.478 149.667 153.478C145.004 153.478 142.098 150.843 142.098 146.653C142.098 143.652 143.463 141.584 146.152 140.489C147.558 139.921 148.356 139.746 153.546 139.083C156.452 138.732 157.371 138.07 157.371 136.529V135.556C157.371 133.352 155.519 132.122 152.221 132.122C148.788 132.122 147.112 133.393 146.801 136.218H143.098C143.192 133.934 143.625 132.609 144.679 131.42C146.22 129.703 148.991 128.73 152.343 128.73C158.02 128.73 161.02 130.933 161.02 135.028V148.599C161.02 149.748 161.723 150.41 163.007 150.41C163.224 150.41 163.399 150.41 163.805 150.315V153.086V153.086ZM157.371 141.057C156.141 141.624 155.344 141.8 151.464 142.327C147.545 142.895 145.909 144.139 145.909 146.558C145.909 148.896 147.585 150.261 150.451 150.261C152.613 150.261 154.411 149.559 155.911 148.193C157.006 147.18 157.371 146.436 157.371 145.193V141.057V141.057Z" fill="white"/>
<path fill-rule="evenodd" clip-rule="evenodd" d="M125.206 64.0558C126.132 64.016 127.064 63.9958 128 63.9958C128.942 63.9958 129.882 64.0166 130.82 64.0579L130.755 65.5246C129.839 65.4842 128.92 65.4639 128 65.4639C127.085 65.4639 126.175 65.4836 125.269 65.5225L125.206 64.0558ZM114.143 65.502C115.949 65.103 117.783 64.7803 119.642 64.5375L119.832 65.9931C118.016 66.2304 116.224 66.5457 114.46 66.9355L114.143 65.502ZM136.438 64.5539C138.304 64.802 140.157 65.1319 141.99 65.5422L141.67 66.9748C139.878 66.5739 138.068 66.2515 136.244 66.0092L136.438 64.5539ZM103.502 68.8569C105.215 68.1461 106.966 67.5075 108.75 66.945L109.191 68.3451C107.448 68.8946 105.739 69.5184 104.065 70.2128L103.502 68.8569ZM147.434 67.015C149.225 67.5852 150.991 68.2343 152.727 68.9609L152.161 70.3152C150.464 69.6052 148.738 68.9709 146.989 68.4138L147.434 67.015ZM93.6108 74.0188C95.1765 73.0189 96.7887 72.0851 98.4433 71.2215L99.1225 72.523C97.506 73.3667 95.9309 74.279 94.4009 75.2561L93.6108 74.0188ZM157.829 71.3648C158.66 71.8021 159.483 72.2582 160.296 72.7329L159.556 74.0007C158.761 73.5369 157.958 73.0913 157.145 72.664L157.829 71.3648ZM84.7654 80.8173C86.1368 79.5598 87.5631 78.3614 89.0404 77.2259L89.935 78.3898C88.4915 79.4994 87.0976 80.6705 85.7575 81.8993L84.7654 80.8173ZM77.2259 89.0404C78.3614 87.5631 79.5598 86.1368 80.8172 84.7654L81.8993 85.7575C80.6705 87.0977 79.4994 88.4915 78.3898 89.935L77.2259 89.0404ZM71.2215 98.4433C72.0851 96.7887 73.0189 95.1766 74.0188 93.6108L75.2561 94.4009C74.279 95.9309 73.3667 97.506 72.523 99.1226L71.2215 98.4433ZM185.031 98.9447C185.411 99.692 185.777 100.446 186.127 101.206L184.794 101.82C184.451 101.078 184.094 100.341 183.723 99.6107L185.031 98.9447ZM66.945 108.75C67.5075 106.966 68.1461 105.215 68.8569 103.502L70.2128 104.065C69.5184 105.739 68.8946 107.448 68.3451 109.191L66.945 108.75ZM188.049 105.849C188.629 107.422 189.147 109.017 189.601 110.628L188.189 111.027C187.744 109.452 187.239 107.894 186.672 106.357L188.049 105.849ZM64.5375 119.642C64.7803 117.783 65.103 115.949 65.502 114.143L66.9355 114.46C66.5457 116.224 66.2304 118.016 65.9931 119.832L64.5375 119.642ZM190.774 115.515C191.101 117.157 191.363 118.812 191.56 120.478L190.103 120.65C189.91 119.023 189.654 117.405 189.335 115.801L190.774 115.515ZM63.9958 128C63.9958 127.064 64.016 126.132 64.0558 125.206L65.5225 125.269C65.4836 126.175 65.4639 127.085 65.4639 128C65.4639 128.915 65.4836 129.825 65.5225 130.731L64.0558 130.794C64.016 129.867 63.9958 128.936 63.9958 128ZM191.955 125.487C191.988 126.324 192.004 127.161 192.004 128C192.004 128.936 191.984 129.867 191.944 130.794L190.477 130.731C190.516 129.825 190.536 128.915 190.536 128C190.536 127.18 190.52 126.362 190.488 125.545L191.955 125.487ZM191.463 136.358C191.22 138.217 190.897 140.051 190.498 141.857L189.064 141.54C189.454 139.776 189.77 137.984 190.007 136.168L191.463 136.358ZM65.502 141.857C65.103 140.051 64.7803 138.217 64.5375 136.358L65.9931 136.168C66.2304 137.984 66.5457 139.776 66.9355 141.54L65.502 141.857ZM189.055 147.25C188.492 149.034 187.854 150.785 187.143 152.497L185.787 151.935C186.482 150.261 187.105 148.552 187.655 146.809L189.055 147.25ZM68.8569 152.497C68.1461 150.785 67.5075 149.034 66.945 147.25L68.3451 146.809C68.8946 148.552 69.5184 150.261 70.2128 151.935L68.8569 152.497ZM184.778 157.557C183.915 159.211 182.981 160.823 181.981 162.389L180.744 161.599C181.721 160.069 182.633 158.494 183.477 156.877L184.778 157.557ZM74.0188 162.389C73.0189 160.823 72.0851 159.211 71.2215 157.557L72.523 156.877C73.3667 158.494 74.279 160.069 75.2561 161.599L74.0188 162.389ZM178.774 166.96C177.639 168.437 176.44 169.863 175.183 171.235L174.101 170.242C175.329 168.902 176.501 167.509 177.61 166.065L178.774 166.96ZM80.8173 171.235C79.5598 169.863 78.3614 168.437 77.2259 166.96L78.3898 166.065C79.4994 167.509 80.6705 168.902 81.8993 170.242L80.8173 171.235ZM171.235 175.183C169.863 176.44 168.437 177.639 166.96 178.774L166.065 177.61C167.509 176.501 168.902 175.329 170.242 174.101L171.235 175.183ZM89.0404 178.774C87.5631 177.639 86.1368 176.44 84.7654 175.183L85.7575 174.101C87.0977 175.329 88.4915 176.501 89.935 177.61L89.0404 178.774ZM162.389 181.981C160.823 182.981 159.211 183.915 157.557 184.778L156.877 183.477C158.494 182.633 160.069 181.721 161.599 180.744L162.389 181.981ZM98.4433 184.778C96.7887 183.915 95.1766 182.981 93.6108 181.981L94.4009 180.744C95.9309 181.721 97.506 182.633 99.1226 183.477L98.4433 184.778ZM152.497 187.143C150.785 187.854 149.034 188.492 147.25 189.055L146.809 187.655C148.552 187.105 150.261 186.482 151.935 185.787L152.497 187.143ZM108.75 189.055C106.966 188.492 105.215 187.854 103.502 187.143L104.065 185.787C105.739 186.482 107.448 187.105 109.191 187.655L108.75 189.055ZM119.642 191.463C117.783 191.22 115.949 190.897 114.143 190.498L114.46 189.064C116.224 189.454 118.016 189.77 119.832 190.007L119.642 191.463ZM141.857 190.498C140.051 190.897 138.217 191.22 136.358 191.463L136.168 190.007C137.984 189.77 139.776 189.454 141.54 189.064L141.857 190.498ZM128 192.004C127.064 192.004 126.132 191.984 125.206 191.944L125.269 190.477C126.175 190.516 127.085 190.536 128 190.536C128.915 190.536 129.825 190.516 130.731 190.477L130.794 191.944C129.867 191.984 128.936 192.004 128 192.004Z" fill="#808080"/>
</g>
</g>
<defs>
<clipPath id="clip0_2_39">
<rect width="256" height="256" fill="white"/>
</clipPath>
<clipPath id="clip1_2_39">
<rect width="128" height="128" fill="white" transform="translate(64 64)"/>
</clipPath>
</defs>
</svg>
